# xmcd
#
# Track frame offsets:
#	150
#	18047
#	36967
#	56291
#	87021
#	105203
#	127417
#	157522
#	180175
#	212273
#	234775
#	253364
#	273090
#	307807
#	322327
#
# Disc length: 4666 seconds
#
# Revision: 1
# Processed by: cddbd v1.5.1PL0 Copyright (c) Steve Scherf et al.
# Submitted via: audiograbber 1.81.03
#
DISCID=ab12380f
DTITLE=Gary Moore - Ballads and Blues 1982~1994
DYEAR=1994
DGENRE=Blues
TTITLE0=Always gonna love you
TTITLE1=Still got the blues
TTITLE2=Empty rooms
TTITLE3=Parisienne walkways
TTITLE4=One day
TTITLE5=Separate ways
TTITLE6=Story of the blues
TTITLE7=Crying in the shadows
TTITLE8=With love (Remember)
TTITLE9=Midnight blues
TTITLE10=Falling in love with you
TTITLE11=Jumpin' at shadows
TTITLE12=Blues for Narada
TTITLE13=Johnny boy
TTITLE14=Still got the blues (complete)
EXTD=
EXTT0=
EXTT1=
EXTT2=
EXTT3=
EXTT4=
EXTT5=
EXTT6=
EXTT7=
EXTT8=
EXTT9=
EXTT10=
EXTT11=
EXTT12=
EXTT13=
EXTT14=
PLAYORDER=
